<?xml version="1.0" encoding="UTF-8" standalone="no"?>
<!-- Created with Inkscape (http://www.inkscape.org/) -->

<svg
   xmlns:dc="http://purl.org/dc/elements/1.1/"
   xmlns:cc="http://creativecommons.org/ns#"
   xmlns:rdf="http://www.w3.org/1999/02/22-rdf-syntax-ns#"
   xmlns:svg="http://www.w3.org/2000/svg"
   xmlns="http://www.w3.org/2000/svg"
   xmlns:sodipodi="http://sodipodi.sourceforge.net/DTD/sodipodi-0.dtd"
   xmlns:inkscape="http://www.inkscape.org/namespaces/inkscape"
   width="48"
   height="120"
   id="svg2"
   version="1.1"
   inkscape:version="0.48.4 r9939"
   sodipodi:docname="icons.svg"
   inkscape:export-filename="/home/kimus/Develop/antsmedia/dgpc/code/dgpc-bitbucket/openshift/wsgi/python/blocks/static/blocks/img/icons.png"
   inkscape:export-xdpi="90"
   inkscape:export-ydpi="90">
  <defs
     id="defs4" />
  <sodipodi:namedview
     id="base"
     pagecolor="#ffffff"
     bordercolor="#666666"
     borderopacity="1.0"
     inkscape:pageopacity="0.0"
     inkscape:pageshadow="2"
     inkscape:zoom="5.6"
     inkscape:cx="-9.0971185"
     inkscape:cy="46.909308"
     inkscape:document-units="px"
     inkscape:current-layer="layer1"
     showgrid="true"
     inkscape:window-width="1494"
     inkscape:window-height="954"
     inkscape:window-x="1513"
     inkscape:window-y="79"
     inkscape:window-maximized="0"
     objecttolerance="4"
     guidetolerance="4"
     showguides="true"
     inkscape:guide-bbox="true">
    <sodipodi:guide
       orientation="1,0"
       position="48,0"
       id="guide3093" />
    <sodipodi:guide
       orientation="1,0"
       position="0,0"
       id="guide3095" />
    <sodipodi:guide
       orientation="1,0"
       position="24,0"
       id="guide3097" />
    <sodipodi:guide
       orientation="0,1"
       position="0,24"
       id="guide3099" />
    <sodipodi:guide
       orientation="0,1"
       position="0,0"
       id="guide3101" />
    <sodipodi:guide
       orientation="0,1"
       position="0,48"
       id="guide3103" />
    <inkscape:grid
       type="xygrid"
       id="grid3107"
       empspacing="5"
       visible="true"
       enabled="true"
       snapvisiblegridlinesonly="true"
       dotted="true" />
    <sodipodi:guide
       orientation="0,1"
       position="0,72"
       id="guide4064" />
    <sodipodi:guide
       orientation="0,1"
       position="0,96"
       id="guide3831" />
  </sodipodi:namedview>
  <metadata
     id="metadata7">
    <rdf:RDF>
      <cc:Work
         rdf:about="">
        <dc:format>image/svg+xml</dc:format>
        <dc:type
           rdf:resource="http://purl.org/dc/dcmitype/StillImage" />
        <dc:title />
      </cc:Work>
    </rdf:RDF>
  </metadata>
  <g
     inkscape:label="Layer 1"
     inkscape:groupmode="layer"
     id="layer1"
     transform="translate(0,-932.3622)">
    <rect
       style="fill:none;stroke:#309bbf;stroke-opacity:1"
       id="rect3111"
       width="16"
       height="16"
       x="4"
       y="960.36218"
       rx="3"
       ry="3" />
    <rect
       style="fill:#75bbd1;fill-opacity:1;stroke:none"
       id="rect3881"
       width="4.9464288"
       height="1"
       x="13.053572"
       y="967.36218" />
    <rect
       y="969.36218"
       x="6"
       height="1"
       width="12"
       id="rect3883"
       style="fill:#75bbd1;fill-opacity:1;stroke:none" />
    <rect
       style="fill:#75bbd1;fill-opacity:1;stroke:none"
       id="rect3885"
       width="12"
       height="1"
       x="6"
       y="971.36218" />
    <rect
       y="973.36218"
       x="6"
       height="1"
       width="12"
       id="rect3887"
       style="fill:#75bbd1;fill-opacity:1;stroke:none" />
    <rect
       style="fill:#75bbd1;fill-opacity:1;fill-rule:evenodd;stroke:none"
       id="rect3889"
       width="6"
       height="5"
       x="6"
       y="963.36218" />
    <rect
       y="965.36218"
       x="13.053572"
       height="1"
       width="4.9464288"
       id="rect3891"
       style="fill:#75bbd1;fill-opacity:1;stroke:none" />
    <rect
       style="fill:#309bbf;fill-opacity:1;stroke:none"
       id="rect3893"
       width="4.9464288"
       height="1"
       x="13.053572"
       y="963.36218" />
    <rect
       ry="3"
       rx="3"
       y="960.36218"
       x="28"
       height="16"
       width="16"
       id="rect3964"
       style="fill:none;stroke:#444444;stroke-opacity:1" />
    <rect
       y="967.36218"
       x="37.053574"
       height="1"
       width="4.9464288"
       id="rect3966"
       style="fill:#444444;fill-opacity:0.8;stroke:none" />
    <rect
       style="fill:#444444;fill-opacity:0.8;stroke:none"
       id="rect3968"
       width="12"
       height="1"
       x="30"
       y="969.36218" />
    <rect
       y="971.36218"
       x="30"
       height="1"
       width="12"
       id="rect3970"
       style="fill:#444444;fill-opacity:0.8;stroke:none" />
    <rect
       style="fill:#444444;fill-opacity:0.8;stroke:none"
       id="rect3972"
       width="12"
       height="1"
       x="30"
       y="973.36218" />
    <rect
       y="963.36218"
       x="30"
       height="5"
       width="6"
       id="rect3974"
       style="fill:#444444;fill-opacity:0.8;fill-rule:evenodd;stroke:none" />
    <rect
       style="fill:#444444;fill-opacity:0.8;stroke:none"
       id="rect3976"
       width="4.9464288"
       height="1"
       x="37.053574"
       y="965.36218" />
    <rect
       y="963.36218"
       x="37.053574"
       height="1"
       width="4.9464288"
       id="rect3978"
       style="fill:#444444;fill-opacity:1;stroke:none" />
    <rect
       ry="3"
       rx="3"
       y="984.36218"
       x="4"
       height="16"
       width="16"
       id="rect3980"
       style="fill:none;stroke:#309bbf;stroke-opacity:1" />
    <rect
       y="990.36218"
       x="13.053572"
       height="1"
       width="4.9464288"
       id="rect3982"
       style="fill:#75bbd1;fill-opacity:1;stroke:none" />
    <rect
       y="986.36218"
       x="6"
       height="5"
       width="6"
       id="rect3990"
       style="fill:#75bbd1;fill-opacity:1;fill-rule:evenodd;stroke:none" />
    <rect
       style="fill:#75bbd1;fill-opacity:1;stroke:none"
       id="rect3992"
       width="4.9464288"
       height="1"
       x="13.053572"
       y="988.36218" />
    <rect
       y="986.36218"
       x="13.053572"
       height="1"
       width="4.9464288"
       id="rect3994"
       style="fill:#309bbf;fill-opacity:1;stroke:none" />
    <rect
       style="fill:none;stroke:#444444;stroke-opacity:1"
       id="rect3996"
       width="16"
       height="16"
       x="28"
       y="984.36218"
       rx="3"
       ry="3" />
    <rect
       style="fill:#444444;fill-opacity:0.8;stroke:none"
       id="rect3998"
       width="4.9464288"
       height="1"
       x="37.053574"
       y="990.36218" />
    <rect
       style="fill:#444444;fill-opacity:0.8;fill-rule:evenodd;stroke:none"
       id="rect4006"
       width="6"
       height="5"
       x="30"
       y="986.36218" />
    <rect
       y="988.36218"
       x="37.053574"
       height="1"
       width="4.9464288"
       id="rect4008"
       style="fill:#444444;fill-opacity:0.8;stroke:none" />
    <rect
       style="fill:#444444;fill-opacity:1;stroke:none"
       id="rect4010"
       width="4.9464288"
       height="1"
       x="37.053574"
       y="986.36218" />
    <rect
       style="fill:#75bbd1;fill-opacity:1;stroke:none"
       id="rect4012"
       width="4.9464288"
       height="1"
       x="13.053572"
       y="997.36218" />
    <rect
       style="fill:#75bbd1;fill-opacity:1;fill-rule:evenodd;stroke:none"
       id="rect4014"
       width="6"
       height="5"
       x="6"
       y="993.36218" />
    <rect
       y="995.36218"
       x="13.053572"
       height="1"
       width="4.9464288"
       id="rect4016"
       style="fill:#75bbd1;fill-opacity:1;stroke:none" />
    <rect
       style="fill:#309bbf;fill-opacity:1;stroke:none"
       id="rect4018"
       width="4.9464288"
       height="1"
       x="13.053572"
       y="993.36218" />
    <rect
       y="997.36218"
       x="37.053574"
       height="1"
       width="4.9464288"
       id="rect4020"
       style="fill:#444444;fill-opacity:0.8;stroke:none" />
    <rect
       y="993.36218"
       x="30"
       height="5"
       width="6"
       id="rect4022"
       style="fill:#444444;fill-opacity:0.8;fill-rule:evenodd;stroke:none" />
    <rect
       style="fill:#444444;fill-opacity:0.8;stroke:none"
       id="rect4024"
       width="4.9464288"
       height="1"
       x="37.053574"
       y="995.36218" />
    <rect
       y="993.36218"
       x="37.053574"
       height="1"
       width="4.9464288"
       id="rect4026"
       style="fill:#444444;fill-opacity:1;stroke:none" />
    <rect
       style="fill:none;stroke:#309bbf;stroke-opacity:1"
       id="rect4028"
       width="16"
       height="16"
       x="4"
       y="1008.3622"
       rx="3"
       ry="3" />
    <rect
       style="fill:#75bbd1;fill-opacity:1;fill-rule:evenodd;stroke:none"
       id="rect4032"
       width="5"
       height="5"
       x="6"
       y="1010.3622" />
    <rect
       ry="3"
       rx="3"
       y="1008.3622"
       x="28"
       height="16"
       width="16"
       id="rect4038"
       style="fill:none;stroke:#444444;stroke-opacity:1" />
    <rect
       y="1017.3622"
       x="6"
       height="5"
       width="5"
       id="rect4050"
       style="fill:#75bbd1;fill-opacity:1;fill-rule:evenodd;stroke:none" />
    <rect
       ry="3"
       rx="3"
       y="936.36218"
       x="4"
       height="16"
       width="16"
       id="rect4066"
       style="fill:none;stroke:#309bbf;stroke-opacity:1" />
    <rect
       style="fill:none;stroke:#444444;stroke-opacity:1"
       id="rect4076"
       width="16"
       height="16"
       x="28"
       y="936.36218"
       rx="3"
       ry="3" />
    <rect
       y="1010.3622"
       x="13"
       height="5"
       width="5"
       id="rect4102"
       style="fill:#75bbd1;fill-opacity:1;fill-rule:evenodd;stroke:none" />
    <rect
       style="fill:#75bbd1;fill-opacity:1;fill-rule:evenodd;stroke:none"
       id="rect4104"
       width="5"
       height="5"
       x="13"
       y="1017.3622" />
    <rect
       y="1010.3622"
       x="30"
       height="5"
       width="5"
       id="rect4106"
       style="fill:#444444;fill-opacity:0.8;fill-rule:evenodd;stroke:none" />
    <rect
       style="fill:#444444;fill-opacity:0.8;fill-rule:evenodd;stroke:none"
       id="rect4108"
       width="5"
       height="5"
       x="30"
       y="1017.3622" />
    <rect
       style="fill:#444444;fill-opacity:0.8;fill-rule:evenodd;stroke:none"
       id="rect4110"
       width="5"
       height="5"
       x="37"
       y="1010.3622" />
    <rect
       y="1017.3622"
       x="37"
       height="5"
       width="5"
       id="rect4112"
       style="fill:#444444;fill-opacity:0.8;fill-rule:evenodd;stroke:none" />
    <g
       id="g3819"
       transform="translate(0,-24)">
      <path
         id="rect3038"
         transform="translate(0,956.3622)"
         d="m 7,99.5 c -1.9303514,0 -3.5,1.5696 -3.5,3.5 l 0,10 c 0,1.9304 1.5696486,3.5 3.5,3.5 l 10,0 c 1.930351,0 3.5,-1.5696 3.5,-3.5 l 0,-3.71875 -1,0.875 0,2.84375 c 0,1.3936 -1.106351,2.5 -2.5,2.5 l -10,0 c -1.3936486,0 -2.5,-1.1064 -2.5,-2.5 l 0,-10 c 0,-1.3936 1.1063514,-2.5 2.5,-2.5 l 10,0 c 1.393649,0 2.5,1.1064 2.5,2.5 l 0,2.84375 1,0.875 0,-3.71875 c 0,-1.9304 -1.569649,-3.5 -3.5,-3.5 l -10,0 z"
         style="font-size:medium;font-style:normal;font-variant:normal;font-weight:normal;font-stretch:normal;text-indent:0;text-align:start;text-decoration:none;line-height:normal;letter-spacing:normal;word-spacing:normal;text-transform:none;direction:ltr;block-progression:tb;writing-mode:lr-tb;text-anchor:start;baseline-shift:baseline;color:#000000;fill:#309bbf;fill-opacity:1;stroke:none;stroke-width:1;marker:none;visibility:visible;display:inline;overflow:visible;enable-background:accumulate;font-family:Sans;-inkscape-font-specification:Sans"
         inkscape:connector-curvature="0" />
      <path
         sodipodi:nodetypes="cccccccc"
         inkscape:connector-curvature="0"
         id="path3042"
         d="m 7,1062.3622 0,4 6,0 0,4 7,-6 -7,-6 0,4 z"
         style="fill:#75bbd1;fill-opacity:1;stroke:none" />
    </g>
    <path
       inkscape:connector-curvature="0"
       id="path3825"
       d="m 31,1031.8622 c -1.930351,0 -3.5,1.5696 -3.5,3.5 l 0,10 c 0,1.9304 1.569649,3.5 3.5,3.5 l 10,0 c 1.930351,0 3.5,-1.5696 3.5,-3.5 l 0,-3.7187 -1,0.875 0,2.8437 c 0,1.3936 -1.106351,2.5 -2.5,2.5 l -10,0 c -1.393649,0 -2.5,-1.1064 -2.5,-2.5 l 0,-10 c 0,-1.3936 1.106351,-2.5 2.5,-2.5 l 10,0 c 1.393649,0 2.5,1.1064 2.5,2.5 l 0,2.8438 1,0.875 0,-3.7188 c 0,-1.9304 -1.569649,-3.5 -3.5,-3.5 l -10,0 z"
       style="font-size:medium;font-style:normal;font-variant:normal;font-weight:normal;font-stretch:normal;text-indent:0;text-align:start;text-decoration:none;line-height:normal;letter-spacing:normal;word-spacing:normal;text-transform:none;direction:ltr;block-progression:tb;writing-mode:lr-tb;text-anchor:start;baseline-shift:baseline;color:#000000;fill:#444444;fill-opacity:1;stroke:none;stroke-width:1;marker:none;visibility:visible;display:inline;overflow:visible;enable-background:accumulate;font-family:Sans;-inkscape-font-specification:Sans" />
    <path
       sodipodi:nodetypes="cccccccc"
       inkscape:connector-curvature="0"
       id="path3827"
       d="m 31,1038.3622 0,4 6,0 0,4 7,-6 -7,-6 0,4 z"
       style="fill:#444444;fill-opacity:0.8;stroke:none" />
  </g>
</svg>
